<svg width="10" height="8" viewBox="0 0 10 8" fill="none" xmlns="http://www.w3.org/2000/svg">
<path d="M1.03794 0.780963C1.31052 0.406346 1.75247 0.406346 2.02506 0.780963L5.47999 5.52909C5.75258 5.90371 5.75258 6.51109 5.47999 6.8857C5.20741 7.26032 4.76546 7.26032 4.49287 6.8857L1.03794 2.13757C0.765349 1.76295 0.765349 1.15558 1.03794 0.780963Z" fill="#9F9F9F"/>
<path d="M8.96239 0.780963C8.6898 0.406346 8.24785 0.406346 7.97527 0.780963L4.52033 5.52909C4.24775 5.90371 4.24775 6.51109 4.52033 6.8857C4.79292 7.26032 5.23487 7.26032 5.50746 6.8857L8.96239 2.13757C9.23498 1.76295 9.23498 1.15558 8.96239 0.780963Z" fill="#9F9F9F"/>
</svg>
