<svg width="32" height="32" viewBox="0 0 32 32" fill="none" xmlns="http://www.w3.org/2000/svg">
<rect y="25.6001" width="28.8" height="2.4" rx="1.2" fill="#283D6C"/>
<mask id="mask0_300_2565" style="mask-type:alpha" maskUnits="userSpaceOnUse" x="10" y="24" width="9" height="8">
<circle cx="14.3999" cy="28" r="4" fill="#D9D9D9"/>
</mask>
<g mask="url(#mask0_300_2565)">
<rect x="9.6001" y="25.6001" width="10.4" height="8" fill="#283D6C"/>
</g>
<circle cx="14" cy="2" r="2" fill="#283D6C"/>
<rect x="4" y="10" width="21" height="14" rx="2" fill="#283D6C"/>
<rect x="4" y="20.8" width="20.8" height="3.2" fill="#283D6C"/>
<path d="M7.4038 23.8821C4.62167 23.8821 -1.41525 24.4146 2.03826 23.2163C5.49177 22.0179 5.17541 18.0233 5.47543 19.2217C5.77544 20.4201 8 21.219 8 21.219L7.4038 23.8821Z" fill="#283D6C"/>
<path d="M22.511 23.9056C24.8957 23.9056 30.0702 24.3317 27.1101 23.373C24.1499 22.4143 24.4211 19.2186 24.1639 20.1774C23.9068 21.1361 22 21.7752 22 21.7752L22.511 23.9056Z" fill="#283D6C"/>
<ellipse cx="14.4" cy="12.3999" rx="10.4" ry="10" fill="#283D6C"/>
<circle cx="23.5" cy="9.5" r="8" fill="#FE2525" stroke="white"/>
<path d="M22.3691 9.00195H23.2715C23.5605 9.00195 23.7988 8.95312 23.9863 8.85547C24.1738 8.75391 24.3125 8.61328 24.4023 8.43359C24.4961 8.25 24.543 8.03711 24.543 7.79492C24.543 7.57617 24.5 7.38281 24.4141 7.21484C24.332 7.04297 24.2051 6.91016 24.0332 6.81641C23.8613 6.71875 23.6445 6.66992 23.3828 6.66992C23.1758 6.66992 22.9844 6.71094 22.8086 6.79297C22.6328 6.875 22.4922 6.99023 22.3867 7.13867C22.2812 7.28711 22.2285 7.4668 22.2285 7.67773H20.5352C20.5352 7.20898 20.6602 6.80078 20.9102 6.45312C21.1641 6.10547 21.5039 5.83398 21.9297 5.63867C22.3555 5.44336 22.8242 5.3457 23.3359 5.3457C23.9141 5.3457 24.4199 5.43945 24.8535 5.62695C25.2871 5.81055 25.625 6.08203 25.8672 6.44141C26.1094 6.80078 26.2305 7.24609 26.2305 7.77734C26.2305 8.04688 26.168 8.30859 26.043 8.5625C25.918 8.8125 25.7383 9.03906 25.5039 9.24219C25.2734 9.44141 24.9922 9.60156 24.6602 9.72266C24.3281 9.83984 23.9551 9.89844 23.541 9.89844H22.3691V9.00195ZM22.3691 10.2852V9.41211H23.541C24.0059 9.41211 24.4141 9.46484 24.7656 9.57031C25.1172 9.67578 25.4121 9.82812 25.6504 10.0273C25.8887 10.2227 26.0684 10.4551 26.1895 10.7246C26.3105 10.9902 26.3711 11.2852 26.3711 11.6094C26.3711 12.0078 26.2949 12.3633 26.1426 12.6758C25.9902 12.9844 25.7754 13.2461 25.498 13.4609C25.2246 13.6758 24.9043 13.8398 24.5371 13.9531C24.1699 14.0625 23.7695 14.1172 23.3359 14.1172C22.9766 14.1172 22.623 14.0684 22.2754 13.9707C21.9316 13.8691 21.6191 13.7188 21.3379 13.5195C21.0605 13.3164 20.8379 13.0625 20.6699 12.7578C20.5059 12.4492 20.4238 12.084 20.4238 11.6621H22.1172C22.1172 11.8809 22.1719 12.0762 22.2812 12.248C22.3906 12.4199 22.541 12.5547 22.7324 12.6523C22.9277 12.75 23.1445 12.7988 23.3828 12.7988C23.6523 12.7988 23.8828 12.75 24.0742 12.6523C24.2695 12.5508 24.418 12.4102 24.5195 12.2305C24.625 12.0469 24.6777 11.834 24.6777 11.5918C24.6777 11.2793 24.6211 11.0293 24.5078 10.8418C24.3945 10.6504 24.2324 10.5098 24.0215 10.4199C23.8105 10.3301 23.5605 10.2852 23.2715 10.2852H22.3691Z" fill="white"/>
</svg>
