<svg width="18" height="12" viewBox="0 0 18 12" fill="none" xmlns="http://www.w3.org/2000/svg">
<path d="M1.02993 0.210984C2.01482 -0.223345 3.27419 0.0344049 3.84282 0.786684L10.5351 9.64047C11.1038 10.3928 10.7663 11.3547 9.78143 11.789C8.79655 12.2233 7.53717 11.9656 6.96855 11.2133L0.276221 2.35953C-0.292405 1.60725 0.0450433 0.645312 1.02993 0.210984Z" fill="#293D6C"/>
<path d="M16.9701 0.210984C15.9852 -0.223345 14.7258 0.0344049 14.1572 0.786684L7.46486 9.64047C6.89623 10.3928 7.23368 11.3547 8.21857 11.789C9.20346 12.2233 10.4628 11.9656 11.0315 11.2133L17.7238 2.35953C18.2924 1.60725 17.955 0.645312 16.9701 0.210984Z" fill="#293D6C"/>
</svg>
