<svg width="16" height="16" viewBox="0 0 16 16" fill="none" xmlns="http://www.w3.org/2000/svg">
<rect x="0.25" y="0.25" width="15.5" height="15.5" rx="1.75" stroke="#D9D9D9" stroke-width="0.5"/>
<path d="M4.02951 5.41961C4.2912 5.08246 4.71547 5.08246 4.97715 5.41961L8.29389 9.69293C8.55557 10.0301 8.55557 10.5767 8.29389 10.9139C8.0322 11.251 7.60793 11.251 7.34625 10.9139L4.02951 6.64056C3.76783 6.30341 3.76783 5.75677 4.02951 5.41961Z" fill="#9F9F9F"/>
<path d="M11.637 5.41961C11.3753 5.08246 10.951 5.08246 10.6894 5.41961L7.37262 9.69293C7.11093 10.0301 7.11093 10.5767 7.37262 10.9139C7.6343 11.251 8.05857 11.251 8.32025 10.9139L11.637 6.64056C11.8987 6.30341 11.8987 5.75677 11.637 5.41961Z" fill="#9F9F9F"/>
</svg>
